<?xml version="1.0" standalone="no"?>
<!DOCTYPE svg PUBLIC "-//W3C//DTD SVG 20010904//EN"
 "http://www.w3.org/TR/2001/REC-SVG-20010904/DTD/svg10.dtd">
<svg version="1.0" xmlns="http://www.w3.org/2000/svg"
 width="138.000000pt" height="138.000000pt" viewBox="0 0 138.000000 138.000000"
 preserveAspectRatio="xMidYMid meet">
<metadata>
Created by potrace 1.11, written by Peter Selinger 2001-2013
</metadata>
<g transform="translate(0.000000,138.000000) scale(0.100000,-0.100000)"
fill="#000000" stroke="none">
<path d="M352 1272 c-22 -17 -22 -19 -8 -64 13 -44 13 -48 -5 -53 -10 -3 -24
-22 -31 -41 -8 -24 -18 -34 -33 -34 -11 0 -31 -7 -44 -16 -18 -13 -28 -14 -47
-5 -14 6 -27 11 -29 11 -1 0 -15 -20 -29 -45 l-27 -45 37 -32 c20 -18 45 -39
55 -45 25 -18 13 -51 -25 -67 -18 -7 -45 -29 -60 -47 -16 -19 -38 -36 -50 -39
-18 -5 -21 -14 -24 -63 -3 -53 -2 -57 22 -63 l26 -6 -26 -21 c-56 -43 -64
-126 -18 -182 8 -11 13 -15 10 -8 -11 22 15 113 37 128 30 21 47 18 85 -14
l34 -29 -51 -47 c-28 -26 -51 -52 -51 -57 0 -4 11 -26 25 -48 l25 -39 60 21
c58 19 62 19 80 3 27 -24 14 -44 -44 -71 l-51 -24 52 0 c28 0 63 4 77 10 31
11 31 12 10 -62 -16 -56 -16 -59 2 -73 24 -18 30 -11 109 139 l60 115 -27 28
c-16 16 -28 36 -28 45 0 32 -22 77 -41 83 -58 19 8 24 281 24 165 0 300 -2
300 -5 0 -4 -11 -15 -25 -26 -16 -12 -27 -34 -31 -58 -4 -22 -17 -49 -30 -61
-13 -12 -24 -27 -24 -33 0 -5 32 -67 71 -138 65 -118 71 -127 90 -115 23 14
23 20 4 83 -19 64 -19 65 11 54 14 -6 49 -10 77 -10 l52 0 -40 19 c-22 10 -48
27 -58 38 -16 19 -16 21 2 37 19 17 23 17 81 -2 l60 -21 25 37 c14 20 25 41
25 47 0 6 -22 32 -49 59 l-49 48 34 30 c59 52 113 17 117 -76 2 -39 4 -44 15
-29 19 26 32 82 25 114 -3 16 -20 42 -39 58 l-33 29 25 6 c22 6 24 11 24 66 0
57 -1 60 -25 60 -17 0 -29 9 -39 29 -9 17 -34 38 -61 51 -35 17 -45 27 -45 46
0 13 3 24 8 24 4 1 26 18 50 40 l43 39 -26 45 c-15 26 -29 46 -30 46 -2 0 -15
-5 -29 -11 -19 -9 -29 -8 -47 5 -13 9 -33 16 -45 16 -15 0 -24 8 -28 25 -3 13
-16 33 -28 45 -20 18 -20 23 -9 62 12 37 11 43 -5 55 -27 19 -30 18 -63 -42
-17 -30 -36 -55 -42 -55 -5 0 -19 19 -29 43 l-20 42 0 -33 c0 -18 7 -49 15
-69 15 -34 14 -38 -11 -80 l-26 -45 22 -23 c18 -20 20 -26 10 -45 -7 -14 -10
-45 -8 -76 l5 -54 -199 0 -199 0 7 23 c10 29 7 83 -7 108 -8 17 -6 24 13 41
l23 20 -27 48 c-26 46 -27 51 -13 84 8 20 15 48 15 63 l-1 28 -17 -34 c-9 -19
-22 -36 -29 -38 -6 -2 -26 23 -45 56 -33 59 -34 59 -56 43z m658 -533 c0 -5
-7 -9 -15 -9 -15 0 -20 12 -9 23 8 8 24 -1 24 -14z m-606 -19 c-6 -27 -4 -30
20 -30 19 0 26 5 26 20 0 11 -4 20 -10 20 -5 0 -10 5 -10 10 0 6 12 10 28 10
27 0 27 0 27 -69 0 -66 -1 -69 -23 -67 -24 3 -43 16 -23 16 7 0 11 9 9 22 -2
14 -11 22 -27 23 -21 2 -23 -2 -18 -29 4 -27 2 -31 -17 -31 -19 0 -21 5 -21
68 0 63 1 67 22 67 20 0 22 -4 17 -30z m255 -12 l31 -42 0 32 c0 18 -4 32 -10
32 -5 0 -10 5 -10 10 0 6 35 10 85 10 68 0 87 -3 92 -15 7 -21 -4 -32 -19 -17
-22 22 -28 13 -28 -38 0 -27 5 -50 10 -50 6 0 10 -4 10 -9 0 -10 -57 -8 -67 3
-3 3 -1 6 5 6 8 0 12 19 12 50 0 47 -11 65 -24 38 -5 -10 -7 -10 -12 0 -13 28
-23 8 -26 -50 l-3 -63 -37 49 -38 49 0 -37 c0 -20 5 -36 11 -36 5 0 8 -4 5 -8
-6 -10 -42 -9 -52 0 -3 4 -17 2 -30 -4 -21 -10 -28 -8 -46 10 -18 18 -20 26
-12 49 12 35 57 44 73 15 12 -23 5 -32 -26 -32 -24 0 -31 -14 -13 -25 6 -4 17
-2 25 5 9 7 15 8 20 0 14 -23 25 -7 25 40 0 28 -4 50 -10 50 -5 0 -10 5 -10
10 0 25 41 6 69 -32z m279 -18 c25 -64 52 -81 52 -32 0 15 -5 33 -12 40 -9 9
-7 12 10 12 18 0 22 -6 22 -34 0 -19 2 -40 5 -48 4 -10 -7 -13 -44 -13 -44 0
-50 2 -48 20 1 14 -4 20 -18 20 -14 0 -19 -6 -18 -21 2 -15 -3 -20 -17 -19
-20 1 -41 15 -23 15 6 0 20 27 32 60 12 33 25 60 29 60 4 0 18 -27 30 -60z"/>
<path d="M535 690 c-3 -5 1 -10 10 -10 9 0 13 5 10 10 -3 6 -8 10 -10 10 -2 0
-7 -4 -10 -10z"/>
<path d="M896 685 c-3 -8 -1 -15 4 -15 6 0 10 7 10 15 0 8 -2 15 -4 15 -2 0
-6 -7 -10 -15z"/>
</g>
</svg>
